<svg width="25" height="24" viewBox="0 0 25 24" fill="none" xmlns="http://www.w3.org/2000/svg">
<g clip-path="url(#clip0)">
<path d="M21.2529 0H2.87793C1.32703 0 0.0654297 1.2616 0.0654297 2.8125V21.1875C0.0654297 22.7384 1.32703 24 2.87793 24H21.2529C22.8038 24 24.0654 22.7384 24.0654 21.1875V2.8125C24.0654 1.2616 22.8038 0 21.2529 0ZM22.1904 21.1875C22.1904 21.7044 21.7698 22.125 21.2529 22.125H15.7217V15.2812H18.723L19.0727 12.375H15.7217V9.23438C15.7217 8.43274 16.3263 7.82812 17.1279 7.82812H19.2373V5.10938C18.6821 5.03101 17.6111 4.92188 17.1279 4.92188C16.0346 4.92188 14.9387 5.38312 14.1213 6.18713C13.2792 7.0155 12.8154 8.10059 12.8154 9.24261V12.375H9.76855V15.2812H12.8154V22.125H2.87793C2.36102 22.125 1.94043 21.7044 1.94043 21.1875V2.8125C1.94043 2.29559 2.36102 1.875 2.87793 1.875H21.2529C21.7698 1.875 22.1904 2.29559 22.1904 2.8125V21.1875Z" fill="white"/>
</g>
<defs>
<clipPath id="clip0">
<rect width="24" height="24" fill="white" transform="translate(0.0654297)"/>
</clipPath>
</defs>
</svg>
