<svg width="25" height="24" viewBox="0 0 25 24" fill="none" xmlns="http://www.w3.org/2000/svg">
<g clip-path="url(#clip0)">
<path d="M12.3016 23.9999C12.2222 23.9999 12.1427 23.9999 12.0627 23.9996C10.1815 24.0042 8.44324 23.9564 6.75281 23.8535C5.203 23.7592 3.78833 23.2236 2.6615 22.3048C1.57422 21.4182 0.831726 20.2194 0.454712 18.7421C0.126587 17.4559 0.109192 16.1934 0.0925293 14.9723C0.0804443 14.0961 0.0679932 13.0579 0.0654297 12.0021C0.0679932 10.942 0.0804443 9.90375 0.0925293 9.02759C0.109192 7.80664 0.126587 6.54412 0.454712 5.25781C0.831726 3.78051 1.57422 2.58172 2.6615 1.69512C3.78833 0.7763 5.203 0.240716 6.75299 0.146417C8.44342 0.0436949 10.182 -0.00427876 12.0673 0.000298881C13.949 -0.00372944 15.6867 0.0436949 17.3771 0.146417C18.9269 0.240716 20.3416 0.7763 21.4684 1.69512C22.5559 2.58172 23.2982 3.78051 23.6752 5.25781C24.0034 6.54394 24.0208 7.80664 24.0374 9.02759C24.0495 9.90375 24.0621 10.942 24.0645 11.9977V12.0021C24.0621 13.0579 24.0495 14.0961 24.0374 14.9723C24.0208 16.1932 24.0035 17.4557 23.6752 18.7421C23.2982 20.2194 22.5559 21.4182 21.4684 22.3048C20.3416 23.2236 18.9269 23.7592 17.3771 23.8535C15.7583 23.952 14.0953 23.9999 12.3016 23.9999ZM12.0627 22.1246C13.9133 22.129 15.6125 22.0823 17.2632 21.9819C18.4351 21.9107 19.4512 21.5304 20.2836 20.8516C21.053 20.2241 21.5829 19.3584 21.8585 18.2784C22.1317 17.2078 22.1474 16.0583 22.1626 14.9467C22.1745 14.0764 22.187 13.0455 22.1895 11.9999C22.187 10.9542 22.1745 9.92352 22.1626 9.05322C22.1474 7.94159 22.1317 6.79205 21.8585 5.72125C21.5829 4.64129 21.053 3.77557 20.2836 3.14807C19.4512 2.46948 18.4351 2.08917 17.2632 2.01794C15.6125 1.91741 13.9133 1.87109 12.0671 1.87512C10.2168 1.87072 8.5174 1.91741 6.8667 2.01794C5.69482 2.08917 4.67877 2.46948 3.84637 3.14807C3.07697 3.77557 2.54706 4.64129 2.27148 5.72125C1.99829 6.79205 1.98254 7.9414 1.96735 9.05322C1.95544 9.92425 1.94299 10.9557 1.94043 12.0021C1.94299 13.044 1.95544 14.0756 1.96735 14.9467C1.98254 16.0583 1.99829 17.2078 2.27148 18.2784C2.54706 19.3584 3.07697 20.2241 3.84637 20.8516C4.67877 21.5302 5.69482 21.9105 6.8667 21.9818C8.5174 22.0823 10.2172 22.1292 12.0627 22.1246ZM12.018 17.8593C8.78729 17.8593 6.15863 15.2308 6.15863 11.9999C6.15863 8.76904 8.78729 6.14056 12.018 6.14056C15.2489 6.14056 17.8774 8.76904 17.8774 11.9999C17.8774 15.2308 15.2489 17.8593 12.018 17.8593ZM12.018 8.01556C9.82111 8.01556 8.03363 9.80304 8.03363 11.9999C8.03363 14.1968 9.82111 15.9843 12.018 15.9843C14.2151 15.9843 16.0024 14.1968 16.0024 11.9999C16.0024 9.80304 14.2151 8.01556 12.018 8.01556ZM18.5336 4.26556C17.7571 4.26556 17.1274 4.89508 17.1274 5.67181C17.1274 6.44854 17.7571 7.07806 18.5336 7.07806C19.3104 7.07806 19.9399 6.44854 19.9399 5.67181C19.9399 4.89508 19.3104 4.26556 18.5336 4.26556Z" fill="white"/>
</g>
<defs>
<clipPath id="clip0">
<rect width="24" height="24" fill="white" transform="translate(0.0654297)"/>
</clipPath>
</defs>
</svg>
