<svg width="25" height="24" viewBox="0 0 25 24" fill="none" xmlns="http://www.w3.org/2000/svg">
<g clip-path="url(#clip0)">
<path d="M7.5658 19.8281H4.28455V9.23438H7.5658V19.8281ZM7.89319 5.85919C7.89319 4.79846 7.03259 3.9375 5.97241 3.9375C4.9082 3.9375 4.0498 4.79846 4.0498 5.85919C4.0498 6.92029 4.9082 7.78125 5.97241 7.78125C7.03259 7.78125 7.89319 6.92029 7.89319 5.85919ZM19.8467 13.9999C19.8467 11.1561 19.2459 9.04688 15.9238 9.04688C14.3275 9.04688 13.256 9.84521 12.8185 10.6754H12.8154V9.23438H9.62793V19.8281H12.8154V14.5682C12.8154 13.1907 13.1661 11.8563 14.8735 11.8563C16.5577 11.8563 16.6123 13.4315 16.6123 14.6558V19.8281H19.8467V13.9999ZM24.0654 21.1875V2.8125C24.0654 1.2616 22.8038 0 21.2529 0H2.87793C1.32703 0 0.0654297 1.2616 0.0654297 2.8125V21.1875C0.0654297 22.7384 1.32703 24 2.87793 24H21.2529C22.8038 24 24.0654 22.7384 24.0654 21.1875ZM21.2529 1.875C21.7698 1.875 22.1904 2.29559 22.1904 2.8125V21.1875C22.1904 21.7044 21.7698 22.125 21.2529 22.125H2.87793C2.36102 22.125 1.94043 21.7044 1.94043 21.1875V2.8125C1.94043 2.29559 2.36102 1.875 2.87793 1.875H21.2529Z" fill="white"/>
</g>
<defs>
<clipPath id="clip0">
<rect width="24" height="24" fill="white" transform="translate(0.0654297)"/>
</clipPath>
</defs>
</svg>
