<svg width="178" height="55" viewBox="0 0 178 55" fill="none" xmlns="http://www.w3.org/2000/svg">
<path d="M172.438 54.0039H5.5625C2.50312 54.0039 0 51.5737 0 48.6035V5.40039C0 2.43018 2.50312 0 5.5625 0H172.438C175.497 0 178 2.43018 178 5.40039V48.6035C178 51.5737 175.497 54.0039 172.438 54.0039Z" fill="black"/>
<path d="M37.5467 26.7324C37.5467 22.5471 41.1624 20.5219 41.3014 20.3869C39.2155 17.5517 36.1561 17.1467 35.0436 17.0116C32.4014 16.7416 29.7592 18.4968 28.5077 18.4968C27.117 18.4968 25.0311 17.0116 22.8061 17.0116C19.8858 17.0116 17.2436 18.6318 15.7139 21.197C12.6545 26.3274 14.8795 33.888 17.7999 38.0733C19.3295 40.0985 20.9983 42.3936 23.2233 42.2586C25.4483 42.1236 26.2827 40.9085 28.9249 40.9085C31.567 40.9085 32.2624 42.2586 34.6264 42.2586C36.9905 42.2586 38.5202 40.2335 39.9108 38.2083C41.5795 35.9131 42.2748 33.6179 42.2748 33.4829C42.1358 33.3479 37.5467 31.7278 37.5467 26.7324Z" fill="white"/>
<path d="M33.2364 14.3106C34.3489 12.8255 35.1833 10.9353 35.0442 8.91016C33.3755 9.04517 31.1505 9.99024 30.038 11.4754C28.9255 12.6904 27.952 14.7156 28.2301 16.6057C30.038 16.7408 31.9848 15.6607 33.2364 14.3106Z" fill="white"/>
<path d="M69.2531 41.9876H66.1938L64.525 36.8572H58.6844L57.1547 41.9876H54.2344L60.075 24.5713H63.6906L69.2531 41.9876ZM63.9688 34.697L62.4391 30.1067C62.3 29.7017 62.0219 28.4866 61.4656 26.8665C61.3266 27.5415 61.0485 28.7566 60.6313 30.1067L59.1016 34.697H63.9688Z" fill="white"/>
<path d="M84.1328 35.6424C84.1328 37.8025 83.5765 39.4226 82.325 40.7727C81.2125 41.8528 79.9609 42.3929 78.2922 42.3929C76.6234 42.3929 75.3719 41.8528 74.6766 40.6377V47.2532H71.7563V33.7522C71.7563 32.4021 71.7562 31.052 71.6172 29.5669H74.1203L74.2594 31.5921C75.2328 30.1069 76.6234 29.2969 78.5703 29.2969C80.1 29.2969 81.3515 29.8369 82.325 31.052C83.5765 32.1321 84.1328 33.6172 84.1328 35.6424ZM81.2125 35.6424C81.2125 34.4273 80.9344 33.3472 80.3781 32.6721C79.8219 31.8621 78.9875 31.457 77.875 31.457C77.1797 31.457 76.4844 31.7271 75.9281 32.1321C75.3719 32.5371 74.9547 33.2122 74.8156 33.8872C74.6766 34.2923 74.6766 34.5623 74.6766 34.6973V36.8574C74.6766 37.8025 74.9547 38.4776 75.5109 39.1526C76.0672 39.8277 76.9016 40.0977 77.7359 40.0977C78.8484 40.0977 79.6828 39.6927 80.239 38.8826C80.9344 38.0725 81.2125 36.9925 81.2125 35.6424Z" fill="white"/>
<path d="M99.0122 35.6424C99.0122 37.8025 98.456 39.4226 97.2044 40.7727C96.0919 41.8528 94.8403 42.3929 93.1716 42.3929C91.5028 42.3929 90.2513 41.8528 89.556 40.6377V47.2532H86.6356V33.7522C86.6356 32.4021 86.6356 31.052 86.4966 29.5669H88.9997L89.1388 31.5921C90.1122 30.1069 91.5028 29.2969 93.4497 29.2969C94.9794 29.2969 96.231 29.8369 97.2044 31.052C98.456 32.1321 99.0122 33.6172 99.0122 35.6424ZM96.0919 35.6424C96.0919 34.4273 95.8138 33.3472 95.2575 32.6721C94.7013 31.8621 93.8669 31.457 92.7544 31.457C92.0591 31.457 91.3638 31.7271 90.8075 32.1321C90.2513 32.5371 89.8341 33.2122 89.695 33.8872C89.556 34.2923 89.556 34.5623 89.556 34.6973V36.8574C89.556 37.8025 89.8341 38.4776 90.3903 39.1526C90.9466 39.8277 91.781 40.0977 92.6153 40.0977C93.7278 40.0977 94.5622 39.6927 95.1185 38.8826C95.8138 38.0725 96.0919 36.9925 96.0919 35.6424Z" fill="white"/>
<path d="M115.7 37.1274C115.7 38.6125 115.144 39.8276 114.171 40.7726C113.058 41.8527 111.389 42.2577 109.303 42.2577C107.357 42.2577 105.827 41.8527 104.714 41.1777L105.41 38.8825C106.661 39.5575 108.052 39.9626 109.582 39.9626C110.694 39.9626 111.528 39.6926 112.085 39.2875C112.641 38.7475 112.919 38.2075 112.919 37.3974C112.919 36.7224 112.641 36.0473 112.224 35.6423C111.667 35.1023 110.833 34.6972 109.721 34.2922C106.522 33.2121 104.992 31.457 104.992 29.2969C104.992 27.8118 105.549 26.7317 106.661 25.7866C107.774 24.8416 109.164 24.4365 111.111 24.4365C112.78 24.4365 114.032 24.7065 115.144 25.2466L114.449 27.5417C113.475 27.0017 112.363 26.7317 110.972 26.7317C109.999 26.7317 109.164 27.0017 108.608 27.4067C108.191 27.8118 107.913 28.3518 107.913 29.0268C107.913 29.7019 108.191 30.2419 108.747 30.782C109.164 31.187 110.138 31.592 111.389 32.132C112.919 32.6721 114.032 33.4821 114.866 34.2922C115.283 34.9672 115.7 35.9123 115.7 37.1274Z" fill="white"/>
<path d="M125.157 31.5925H121.958V37.6679C121.958 39.153 122.514 39.963 123.627 39.963C124.183 39.963 124.6 39.963 124.878 39.828L125.017 41.9882C124.461 42.2582 123.766 42.2582 122.792 42.2582C121.68 42.2582 120.707 41.9882 120.15 41.3131C119.455 40.6381 119.177 39.558 119.177 37.9379V31.5925H117.23V29.4323H119.177V27.1372L121.958 26.3271V29.4323H125.157V31.5925Z" fill="white"/>
<path d="M139.479 35.6426C139.479 37.5327 138.923 39.1528 137.811 40.3679C136.559 41.583 135.029 42.258 133.083 42.258C131.136 42.258 129.606 41.583 128.493 40.3679C127.381 39.1528 126.825 37.6677 126.825 35.7776C126.825 33.8874 127.381 32.2673 128.633 31.0522C129.745 29.8372 131.414 29.1621 133.361 29.1621C135.308 29.1621 136.837 29.8372 137.95 31.0522C138.923 32.2673 139.479 33.7524 139.479 35.6426ZM136.42 35.7776C136.42 34.5625 136.142 33.6174 135.586 32.8074C135.029 31.8623 134.056 31.3223 132.943 31.3223C131.831 31.3223 130.858 31.8623 130.301 32.8074C129.745 33.6174 129.467 34.6975 129.467 35.7776C129.467 36.9926 129.745 37.9377 130.301 38.7478C130.858 39.6928 131.831 40.2329 132.943 40.2329C134.056 40.2329 134.89 39.6928 135.586 38.7478C136.142 37.9377 136.42 36.8576 136.42 35.7776Z" fill="white"/>
<path d="M148.797 31.8625C148.519 31.8625 148.241 31.7275 147.823 31.7275C146.85 31.7275 146.016 32.1326 145.459 32.8076C145.042 33.4827 144.764 34.2927 144.764 35.2378V41.8533H141.844V33.2126C141.844 31.7275 141.844 30.5125 141.705 29.2974H144.208L144.347 31.7275H144.486C144.764 30.9175 145.32 30.2424 145.876 29.7024C146.572 29.2974 147.267 29.0273 147.962 29.0273C148.241 29.0273 148.519 29.0273 148.658 29.0273V31.8625H148.797Z" fill="white"/>
<path d="M161.591 35.1025C161.591 35.6426 161.591 36.0476 161.451 36.3176H152.83C152.83 37.5327 153.247 38.4778 154.081 39.1528C154.776 39.6928 155.75 40.0979 156.862 40.0979C158.114 40.0979 159.366 39.9629 160.339 39.5578L160.756 41.448C159.505 41.988 158.114 42.258 156.445 42.258C154.498 42.258 152.83 41.718 151.717 40.5029C150.605 39.4228 150.048 37.8027 150.048 35.9126C150.048 34.0224 150.605 32.4023 151.578 31.1872C152.691 29.8372 154.22 29.1621 156.167 29.1621C157.975 29.1621 159.505 29.8372 160.339 31.1872C161.312 32.2673 161.591 33.6174 161.591 35.1025ZM158.948 34.4275C158.948 33.6174 158.809 32.9424 158.392 32.2673C157.836 31.4573 157.141 31.0522 156.167 31.0522C155.194 31.0522 154.498 31.4573 153.942 32.1323C153.525 32.6724 153.247 33.4824 153.108 34.2925H158.948V34.4275Z" fill="white"/>
<path d="M63.1346 13.9058C63.1346 15.3909 62.7174 16.606 61.744 17.416C60.9096 18.0911 59.658 18.4961 57.9893 18.4961C57.1549 18.4961 56.4596 18.4961 55.9033 18.3611V9.99048C56.5986 9.85547 57.433 9.85547 58.4064 9.85547C59.9361 9.85547 61.0486 10.1255 61.883 10.8005C62.5783 11.4756 63.1346 12.5557 63.1346 13.9058ZM61.6049 13.9058C61.6049 12.9607 61.3268 12.1506 60.7705 11.6106C60.2143 11.0706 59.3799 10.8005 58.4064 10.8005C57.9893 10.8005 57.5721 10.8005 57.2939 10.9356V17.281C57.433 17.281 57.8502 17.281 58.2674 17.281C59.3799 17.281 60.2143 17.011 60.7705 16.471C61.3268 15.9309 61.6049 14.9858 61.6049 13.9058Z" fill="white"/>
<path d="M70.9219 15.2558C70.9219 16.2009 70.6438 17.0109 70.0875 17.551C69.5313 18.226 68.6969 18.496 67.7234 18.496C66.75 18.496 66.0547 18.226 65.4984 17.551C64.9422 17.0109 64.6641 16.2009 64.6641 15.2558C64.6641 14.3108 64.9422 13.5007 65.4984 12.9607C66.0547 12.2856 66.8891 12.0156 67.8625 12.0156C68.8359 12.0156 69.5313 12.2856 70.0875 12.9607C70.6438 13.5007 70.9219 14.3108 70.9219 15.2558ZM69.5313 15.2558C69.5313 14.7158 69.3922 14.1758 69.1141 13.7707C68.8359 13.2307 68.4188 13.0957 67.8625 13.0957C67.3063 13.0957 66.8891 13.3657 66.6109 13.7707C66.3328 14.1758 66.1938 14.7158 66.1938 15.2558C66.1938 15.7959 66.3328 16.3359 66.6109 16.7409C66.8891 17.281 67.3063 17.416 67.8625 17.416C68.4188 17.416 68.8359 17.146 69.1141 16.6059C69.3922 16.3359 69.5313 15.7959 69.5313 15.2558Z" fill="white"/>
<path d="M81.6292 12.1504L79.6823 18.3608H78.4308L77.5964 15.6606C77.3183 14.9856 77.1792 14.3105 77.0401 13.6355C76.9011 14.3105 76.762 14.9856 76.4839 15.6606L75.6495 18.3608H74.3979L72.312 12.1504H73.7026L74.3979 15.1206C74.537 15.7957 74.6761 16.4707 74.8151 17.1458C74.9542 16.6057 75.0933 15.9307 75.3714 15.1206L76.2058 12.1504H77.3183L78.1526 14.9856C78.4308 15.6606 78.5698 16.3357 78.7089 17.0107C78.8479 16.3357 78.987 15.6606 79.1261 14.9856L79.9604 12.1504H81.6292Z" fill="white"/>
<path d="M88.861 18.3614H87.4703V14.8511C87.4703 13.771 87.0531 13.231 86.2188 13.231C85.8016 13.231 85.5235 13.366 85.2453 13.636C84.9672 13.906 84.8281 14.311 84.8281 14.7161V18.3614H83.4375V13.906C83.4375 13.366 83.4375 12.8259 83.4375 12.1509H84.6891V13.096C84.8281 12.8259 85.1063 12.5559 85.3844 12.2859C85.8016 12.0159 86.2188 11.8809 86.636 11.8809C87.1922 11.8809 87.7485 12.0159 88.1657 12.4209C88.7219 12.8259 88.861 13.501 88.861 14.4461V18.3614Z" fill="white"/>
<path d="M92.7544 18.3612H91.3638V9.31543H92.7544V18.3612Z" fill="white"/>
<path d="M101.098 15.2558C101.098 16.2009 100.82 17.0109 100.264 17.551C99.7075 18.226 98.8731 18.496 97.8997 18.496C96.9263 18.496 96.231 18.226 95.6747 17.551C95.1185 17.0109 94.8403 16.2009 94.8403 15.2558C94.8403 14.3108 95.1185 13.5007 95.6747 12.9607C96.231 12.2856 97.0653 12.0156 98.0388 12.0156C99.0122 12.0156 99.7075 12.2856 100.264 12.9607C100.82 13.5007 101.098 14.3108 101.098 15.2558ZM99.7075 15.2558C99.7075 14.7158 99.5685 14.1758 99.2903 13.7707C99.0122 13.2307 98.595 13.0957 98.0388 13.0957C97.4825 13.0957 97.0653 13.3657 96.7872 13.7707C96.5091 14.1758 96.37 14.7158 96.37 15.2558C96.37 15.7959 96.5091 16.3359 96.7872 16.7409C97.0653 17.281 97.4825 17.416 98.0388 17.416C98.595 17.416 99.0122 17.146 99.2903 16.6059C99.5685 16.3359 99.7075 15.7959 99.7075 15.2558Z" fill="white"/>
<path d="M107.912 18.361H106.661L106.522 17.686C106.105 18.226 105.409 18.496 104.714 18.496C104.158 18.496 103.601 18.361 103.323 17.956C103.045 17.551 102.767 17.146 102.767 16.7409C102.767 15.9309 103.045 15.3908 103.741 14.9858C104.436 14.5808 105.27 14.4458 106.522 14.4458V14.3108C106.522 13.5007 106.105 13.0957 105.27 13.0957C104.575 13.0957 104.158 13.2307 103.601 13.5007L103.323 12.5557C103.88 12.1506 104.575 12.0156 105.548 12.0156C107.217 12.0156 108.052 12.8257 108.052 14.5808V16.8759C107.912 17.551 107.912 17.956 107.912 18.361ZM106.522 16.2009V15.2558C104.992 15.2558 104.158 15.6609 104.158 16.4709C104.158 16.7409 104.297 17.0109 104.436 17.146C104.575 17.281 104.853 17.416 105.131 17.416C105.409 17.416 105.687 17.281 105.966 17.146C106.244 17.0109 106.383 16.7409 106.522 16.4709C106.522 16.4709 106.522 16.3359 106.522 16.2009Z" fill="white"/>
<path d="M115.978 18.3617H114.726V17.4167C114.309 18.2267 113.614 18.4968 112.64 18.4968C111.806 18.4968 111.25 18.2267 110.693 17.6867C110.137 17.1467 109.998 16.3366 109.998 15.3916C109.998 14.4465 110.276 13.6364 110.832 12.9614C111.389 12.4214 112.084 12.1513 112.779 12.1513C113.614 12.1513 114.17 12.4214 114.587 12.9614V9.45117H115.978V16.7416C115.978 17.2817 115.978 17.8217 115.978 18.3617ZM114.587 15.7966V14.7165C114.587 14.5815 114.587 14.4465 114.587 14.3115C114.448 14.0415 114.309 13.7715 114.031 13.5014C113.753 13.2314 113.475 13.2314 113.057 13.2314C112.501 13.2314 112.084 13.5014 111.806 13.9065C111.528 14.3115 111.389 14.8515 111.389 15.5266C111.389 16.2016 111.528 16.6066 111.806 17.0117C112.084 17.4167 112.501 17.6867 113.057 17.6867C113.475 17.6867 113.892 17.5517 114.17 17.1467C114.448 16.6066 114.587 16.2016 114.587 15.7966Z" fill="white"/>
<path d="M128.076 15.2558C128.076 16.2009 127.798 17.0109 127.242 17.551C126.686 18.226 125.851 18.496 124.878 18.496C123.904 18.496 123.209 18.226 122.653 17.551C122.096 17.0109 121.818 16.2009 121.818 15.2558C121.818 14.3108 122.096 13.5007 122.653 12.9607C123.209 12.2856 124.043 12.0156 125.017 12.0156C125.99 12.0156 126.686 12.2856 127.242 12.9607C127.798 13.5007 128.076 14.3108 128.076 15.2558ZM126.546 15.2558C126.546 14.7158 126.407 14.1758 126.129 13.7707C125.851 13.2307 125.434 13.0957 124.878 13.0957C124.321 13.0957 123.904 13.3657 123.626 13.7707C123.348 14.1758 123.209 14.7158 123.209 15.2558C123.209 15.7959 123.348 16.3359 123.626 16.7409C123.904 17.281 124.321 17.416 124.878 17.416C125.434 17.416 125.851 17.146 126.129 16.6059C126.407 16.3359 126.546 15.7959 126.546 15.2558Z" fill="white"/>
<path d="M135.725 18.3614H134.334V14.8511C134.334 13.771 133.917 13.231 133.083 13.231C132.665 13.231 132.387 13.366 132.109 13.636C131.831 13.906 131.692 14.311 131.692 14.7161V18.3614H130.301V13.906C130.301 13.366 130.301 12.8259 130.301 12.1509H131.553V13.096C131.692 12.8259 131.97 12.5559 132.248 12.2859C132.665 12.0159 133.083 11.8809 133.5 11.8809C134.056 11.8809 134.612 12.0159 135.029 12.4209C135.586 12.8259 135.725 13.501 135.725 14.4461V18.3614Z" fill="white"/>
<path d="M145.181 13.2312H143.651V16.2014C143.651 17.0114 143.929 17.2814 144.486 17.2814C144.764 17.2814 144.903 17.2814 145.181 17.2814V18.3615C144.903 18.4965 144.486 18.4965 144.068 18.4965C143.512 18.4965 143.095 18.3615 142.817 17.9565C142.539 17.6865 142.4 17.0114 142.4 16.3364V13.2312H141.426V12.1511H142.4V11.071L143.79 10.666V12.1511H145.32V13.2312H145.181Z" fill="white"/>
<path d="M152.691 18.3612H151.3V14.8509C151.3 13.7708 150.883 13.2308 150.048 13.2308C149.353 13.2308 148.936 13.5008 148.658 14.1758C148.658 14.3108 148.658 14.4459 148.658 14.7159V18.3612H147.267V9.31543H148.658V13.0957C149.075 12.4207 149.77 12.0157 150.605 12.0157C151.161 12.0157 151.717 12.1507 151.995 12.5557C152.412 12.9607 152.691 13.7708 152.691 14.5809V18.3612Z" fill="white"/>
<path d="M160.339 14.9856C160.339 15.2556 160.339 15.3906 160.339 15.6606H156.167C156.167 16.3357 156.445 16.7407 156.723 17.0107C157.14 17.2807 157.558 17.4157 158.114 17.4157C158.809 17.4157 159.365 17.2807 159.783 17.1457L160.061 18.0908C159.505 18.3608 158.809 18.4958 157.975 18.4958C157.001 18.4958 156.167 18.2258 155.611 17.6858C155.055 17.1457 154.776 16.3357 154.776 15.3906C154.776 14.4455 155.055 13.6355 155.611 13.0955C156.167 12.4204 156.862 12.1504 157.836 12.1504C158.809 12.1504 159.505 12.4204 159.922 13.0955C160.2 13.5005 160.339 14.1755 160.339 14.9856ZM159.087 14.5806C159.087 14.1755 158.948 13.7705 158.809 13.5005C158.531 13.0955 158.253 12.9604 157.697 12.9604C157.28 12.9604 156.862 13.0955 156.584 13.5005C156.306 13.7705 156.167 14.1755 156.167 14.5806H159.087Z" fill="white"/>
</svg>
