<svg width="113" height="247" viewBox="0 0 113 247" fill="none" xmlns="http://www.w3.org/2000/svg">
<circle cx="110.383" cy="244.807" r="1.84066" transform="rotate(-180 110.383 244.807)" fill="#6654A4"/>
<circle cx="83.3883" cy="244.808" r="1.84066" transform="rotate(-180 83.3883 244.808)" fill="#6654A4"/>
<circle cx="56.3918" cy="244.808" r="1.84066" transform="rotate(-180 56.3918 244.808)" fill="#6654A4"/>
<circle cx="29.3962" cy="244.808" r="1.84066" transform="rotate(-180 29.3962 244.808)" fill="#6654A4"/>
<circle cx="2.39958" cy="244.808" r="1.84066" transform="rotate(-180 2.39958 244.808)" fill="#6654A4"/>
<circle cx="110.385" cy="217.812" r="1.84066" transform="rotate(-180 110.385 217.812)" fill="#6654A4"/>
<circle cx="83.3883" cy="217.812" r="1.84066" transform="rotate(-180 83.3883 217.812)" fill="#6654A4"/>
<circle cx="56.3918" cy="217.812" r="1.84066" transform="rotate(-180 56.3918 217.812)" fill="#6654A4"/>
<circle cx="29.3962" cy="217.812" r="1.84066" transform="rotate(-180 29.3962 217.812)" fill="#6654A4"/>
<circle cx="2.39958" cy="217.812" r="1.84066" transform="rotate(-180 2.39958 217.812)" fill="#6654A4"/>
<circle cx="110.385" cy="190.815" r="1.84066" transform="rotate(-180 110.385 190.815)" fill="#6654A4"/>
<circle cx="83.3883" cy="190.815" r="1.84066" transform="rotate(-180 83.3883 190.815)" fill="#6654A4"/>
<circle cx="56.3918" cy="190.815" r="1.84066" transform="rotate(-180 56.3918 190.815)" fill="#6654A4"/>
<circle cx="29.3962" cy="190.815" r="1.84066" transform="rotate(-180 29.3962 190.815)" fill="#6654A4"/>
<circle cx="2.39958" cy="190.815" r="1.84066" transform="rotate(-180 2.39958 190.815)" fill="#6654A4"/>
<circle cx="110.385" cy="163.819" r="1.84066" transform="rotate(-180 110.385 163.819)" fill="#6654A4"/>
<circle cx="83.3883" cy="163.819" r="1.84066" transform="rotate(-180 83.3883 163.819)" fill="#6654A4"/>
<circle cx="56.3918" cy="163.819" r="1.84066" transform="rotate(-180 56.3918 163.819)" fill="#6654A4"/>
<circle cx="29.3962" cy="163.819" r="1.84066" transform="rotate(-180 29.3962 163.819)" fill="#6654A4"/>
<circle cx="2.39958" cy="163.819" r="1.84066" transform="rotate(-180 2.39958 163.819)" fill="#6654A4"/>
<circle cx="110.385" cy="136.822" r="1.84066" transform="rotate(-180 110.385 136.822)" fill="#6654A4"/>
<circle cx="83.3883" cy="136.822" r="1.84066" transform="rotate(-180 83.3883 136.822)" fill="#6654A4"/>
<circle cx="56.3918" cy="136.822" r="1.84066" transform="rotate(-180 56.3918 136.822)" fill="#6654A4"/>
<circle cx="29.3962" cy="136.822" r="1.84066" transform="rotate(-180 29.3962 136.822)" fill="#6654A4"/>
<circle cx="2.39958" cy="136.822" r="1.84066" transform="rotate(-180 2.39958 136.822)" fill="#6654A4"/>
<circle cx="110.385" cy="109.826" r="1.84066" transform="rotate(-180 110.385 109.826)" fill="#6654A4"/>
<circle cx="83.3883" cy="109.826" r="1.84066" transform="rotate(-180 83.3883 109.826)" fill="#6654A4"/>
<circle cx="56.3918" cy="109.826" r="1.84066" transform="rotate(-180 56.3918 109.826)" fill="#6654A4"/>
<circle cx="29.3962" cy="109.826" r="1.84066" transform="rotate(-180 29.3962 109.826)" fill="#6654A4"/>
<circle cx="2.39958" cy="109.826" r="1.84066" transform="rotate(-180 2.39958 109.826)" fill="#6654A4"/>
<circle cx="110.385" cy="82.8293" r="1.84066" transform="rotate(-180 110.385 82.8293)" fill="#6654A4"/>
<circle cx="83.3883" cy="82.8293" r="1.84066" transform="rotate(-180 83.3883 82.8293)" fill="#6654A4"/>
<circle cx="56.3918" cy="82.8293" r="1.84066" transform="rotate(-180 56.3918 82.8293)" fill="#6654A4"/>
<circle cx="29.3962" cy="82.8293" r="1.84066" transform="rotate(-180 29.3962 82.8293)" fill="#6654A4"/>
<circle cx="2.39958" cy="82.8293" r="1.84066" transform="rotate(-180 2.39958 82.8293)" fill="#6654A4"/>
<circle cx="110.385" cy="55.8332" r="1.84066" transform="rotate(-180 110.385 55.8332)" fill="#6654A4"/>
<circle cx="83.3883" cy="55.8332" r="1.84066" transform="rotate(-180 83.3883 55.8332)" fill="#6654A4"/>
<circle cx="56.3918" cy="55.8332" r="1.84066" transform="rotate(-180 56.3918 55.8332)" fill="#6654A4"/>
<circle cx="29.3962" cy="55.8332" r="1.84066" transform="rotate(-180 29.3962 55.8332)" fill="#6654A4"/>
<circle cx="2.39958" cy="55.8332" r="1.84066" transform="rotate(-180 2.39958 55.8332)" fill="#6654A4"/>
<circle cx="110.385" cy="28.8371" r="1.84066" transform="rotate(-180 110.385 28.8371)" fill="#6654A4"/>
<circle cx="83.3883" cy="28.8371" r="1.84066" transform="rotate(-180 83.3883 28.8371)" fill="#6654A4"/>
<circle cx="56.3918" cy="28.8371" r="1.84066" transform="rotate(-180 56.3918 28.8371)" fill="#6654A4"/>
<circle cx="29.3962" cy="28.8371" r="1.84066" transform="rotate(-180 29.3962 28.8371)" fill="#6654A4"/>
<circle cx="2.39958" cy="28.8371" r="1.84066" transform="rotate(-180 2.39958 28.8371)" fill="#6654A4"/>
<circle cx="110.385" cy="1.84098" r="1.84066" transform="rotate(-180 110.385 1.84098)" fill="#6654A4"/>
<circle cx="83.3883" cy="1.84098" r="1.84066" transform="rotate(-180 83.3883 1.84098)" fill="#6654A4"/>
<circle cx="56.3918" cy="1.84098" r="1.84066" transform="rotate(-180 56.3918 1.84098)" fill="#6654A4"/>
<circle cx="29.3962" cy="1.84098" r="1.84066" transform="rotate(-180 29.3962 1.84098)" fill="#6654A4"/>
<circle cx="2.39958" cy="1.84098" r="1.84066" transform="rotate(-180 2.39958 1.84098)" fill="#6654A4"/>
</svg>
