<svg width="56" height="55" viewBox="0 0 56 55" fill="none" xmlns="http://www.w3.org/2000/svg">
<path d="M52.958 8.39207L19.2729 0.568709C17.8477 0.237812 16.4351 1.24687 16.1336 2.81092L15.4937 7.32433L54.3606 16.3507L55.0005 11.8372C55.3021 10.2738 54.3831 8.72307 52.958 8.39207Z" fill="#6654A4"/>
<path d="M38.7931 17.308C38.3997 15.753 36.919 14.8339 35.5025 15.265L29.1079 17.2132L14.0328 13.7119L12.3749 22.3088L2.01604 25.4641C0.599686 25.8953 -0.237817 27.5203 0.155007 29.0748L5.99281 52.1614C6.38627 53.7158 7.86706 54.6355 9.28342 54.2038L42.7699 44.0054C44.1862 43.5736 45.0238 41.9492 44.6309 40.3941L43.6289 36.4309L47.3845 37.3022C48.8096 37.6337 50.2222 36.6247 50.5237 35.0606L52.8998 22.7383L39.372 19.5967L38.7931 17.308ZM42.6603 29.0416L43.4885 24.7461C43.6129 24.103 44.194 23.6881 44.7799 23.8239L48.694 24.7334C49.2806 24.8699 49.6586 25.5069 49.5348 26.1507L48.7066 30.4461C48.5823 31.0893 48.0013 31.5047 47.4152 31.3683L43.5012 30.4594C42.914 30.3224 42.536 29.6847 42.6603 29.0416ZM2.59877 27.768L11.8658 24.9466L33.7312 18.2876L36.0841 17.5701C36.127 17.5574 36.1699 17.5514 36.2118 17.5514C36.4005 17.5514 36.6262 17.6873 36.6921 17.9476L36.9684 19.0394L37.8339 22.4622L3.39664 32.9499L2.25483 28.4359C2.18329 28.1526 2.34075 27.8465 2.59877 27.768ZM42.531 41.0329C42.5751 41.2081 42.5289 41.353 42.482 41.4436C42.4358 41.5342 42.3467 41.6526 42.1871 41.7008L8.70124 51.8993C8.65891 51.912 8.61541 51.9186 8.57353 51.9186C8.38481 51.9186 8.15914 51.7821 8.09318 51.5218L4.68816 38.0557L39.1255 27.5675L41.2258 35.8727L42.531 41.0329Z" fill="#6654A4"/>
<path d="M14.1123 41.9542C13.9516 41.3201 13.3485 40.9457 12.7707 41.1215L8.85996 42.3129C8.28273 42.4887 7.94104 43.1512 8.10173 43.7852L9.18682 48.0764C9.34751 48.7105 9.95063 49.0849 10.5284 48.9086L14.4391 47.7177C15.0169 47.542 15.3581 46.8795 15.1979 46.2454L14.1123 41.9542Z" fill="#6654A4"/>
</svg>
