<svg width="56" height="54" viewBox="0 0 56 54" fill="none" xmlns="http://www.w3.org/2000/svg">
<g clip-path="url(#clip0)">
<path d="M28.7903 0.00390982L2.90234 0.00390625V8.19238C2.9024 8.9577 3.04641 9.71648 3.32717 10.4308C3.67317 11.3106 3.85061 12.2452 3.85062 13.1878V47.4733C3.85048 47.9656 4.05038 48.4378 4.40631 48.7859L9.54027 53.8083H35.1437C35.6674 53.8083 36.092 53.3929 36.092 52.8806V17.6295L29.6826 0.6106C29.5448 0.245169 29.1884 0.00283324 28.7903 0.00390982Z" fill="#2C3E50"/>
<path d="M36.0913 48.9384V52.881C36.0913 53.3933 35.6667 53.8087 35.143 53.8087H9.53955V17.6299H36.0913V48.9384Z" fill="#8977C8"/>
<path d="M36.092 17.6295H9.54027L2.90234 0.00390625H28.7903C29.1874 0.00399736 29.5424 0.246123 29.6798 0.610597L36.092 17.6295Z" fill="#6654A4"/>
<path d="M29.9748 13.9191H12.517C12.3174 13.919 12.1392 13.7966 12.0713 13.613L8.57219 4.33638C8.51967 4.19426 8.54122 4.03602 8.62993 3.9123C8.71864 3.78859 8.86341 3.71491 9.01788 3.71484H26.4757C26.6753 3.71493 26.8535 3.83732 26.9213 4.02097L27.7463 6.20098L30.4205 13.2976C30.473 13.4397 30.4515 13.5979 30.3627 13.7217C30.274 13.8454 30.1293 13.9191 29.9748 13.9191Z" fill="#CBC2EC"/>
<path d="M9.54027 17.6295V53.8083L4.40631 48.7859C4.05061 48.438 3.85073 47.9662 3.85062 47.4742V13.1878C3.8507 12.2905 3.69023 11.4001 3.37648 10.557C3.06252 9.71323 2.90205 8.8222 2.90234 7.92428L2.90234 0.00390625L9.54027 17.6295Z" fill="#4D3E81"/>
<path d="M13.3338 9.28066C12.9504 9.28058 12.6047 9.05456 12.4579 8.70797C12.3112 8.36138 12.3923 7.96245 12.6634 7.69714L14.56 5.84182C14.7981 5.60067 15.1506 5.50395 15.4822 5.58885C15.8137 5.67375 16.0726 5.92704 16.1594 6.25138C16.2462 6.57571 16.1473 6.92062 15.9008 7.15353L14.0043 9.00886C13.8265 9.18284 13.5853 9.28061 13.3338 9.28066Z" fill="#DDF6FC"/>
<path d="M15.2303 12.0636C14.8468 12.0636 14.5012 11.8375 14.3544 11.491C14.2077 11.1444 14.2888 10.7454 14.5599 10.4801L19.3013 5.84182C19.5394 5.60067 19.8919 5.50395 20.2235 5.58885C20.555 5.67375 20.8139 5.92704 20.9007 6.25138C20.9875 6.57571 20.8886 6.92062 20.6421 7.15353L15.9008 11.7918C15.723 11.9658 15.4818 12.0636 15.2303 12.0636Z" fill="#DDF6FC"/>
<path d="M25.6604 23.1953H19.9707C19.447 23.1953 19.0225 23.6106 19.0225 24.123V25.9783C19.0225 26.4906 19.447 26.906 19.9707 26.906H25.6604C26.1841 26.906 26.6087 26.4906 26.6087 25.9783V24.123C26.6087 23.6106 26.1841 23.1953 25.6604 23.1953Z" fill="#4D3E81"/>
<path d="M29.9752 13.9193H17.2114C18.7666 11.4981 22.133 7.42568 27.7468 6.20117L30.4209 13.2978C30.4734 13.4399 30.4519 13.5981 30.3632 13.7219C30.2745 13.8456 30.1297 13.9192 29.9752 13.9193Z" fill="#BEB3E9"/>
<path d="M49.3679 21.3398H33.2472C31.676 21.3398 30.4023 22.5858 30.4023 24.1228V47.3144C30.4023 48.8514 31.676 50.0973 33.2472 50.0973H49.3679C50.939 50.0973 52.2127 48.8514 52.2127 47.3144V24.1228C52.2127 22.5858 50.939 21.3398 49.3679 21.3398Z" fill="#CBC2EC"/>
<path d="M42.73 21.3398H47.4714V50.0973H42.73V21.3398Z" fill="#6654A4"/>
<path d="M36.566 41.7487C37.8753 41.7487 38.9367 40.7103 38.9367 39.4295C38.9367 38.1487 37.8753 37.1104 36.566 37.1104C35.2567 37.1104 34.1953 38.1487 34.1953 39.4295C34.1953 40.7103 35.2567 41.7487 36.566 41.7487Z" fill="#6654A4"/>
<path d="M36.566 46.3863C37.8753 46.3863 38.9367 45.348 38.9367 44.0672C38.9367 42.7864 37.8753 41.748 36.566 41.748C35.2567 41.748 34.1953 42.7864 34.1953 44.0672C34.1953 45.348 35.2567 46.3863 36.566 46.3863Z" fill="#DDF6FC"/>
</g>
<defs>
<clipPath id="clip0">
<rect width="55" height="53.8043" fill="white" transform="translate(0.0581055 0.00390625)"/>
</clipPath>
</defs>
</svg>
