<svg width="56" height="54" viewBox="0 0 56 54" fill="none" xmlns="http://www.w3.org/2000/svg">
<g clip-path="url(#clip0)">
<path d="M51.6206 23.539C52.3044 23.539 52.9601 23.2733 53.4436 22.8003C53.9271 22.3273 54.1987 21.6858 54.1987 21.0169V12.61C54.1987 11.9411 53.9271 11.2996 53.4436 10.8266C52.9601 10.3536 52.3044 10.0879 51.6206 10.0879H36.1519C35.4681 10.0879 34.8123 10.3536 34.3288 10.8266C33.8454 11.2996 33.5737 11.9411 33.5737 12.61V21.8576H24.98V12.61C24.98 11.9411 24.7084 11.2996 24.2249 10.8266C23.7414 10.3536 23.0856 10.0879 22.4019 10.0879H13.8081C13.1243 10.0879 12.4686 10.3536 11.9851 10.8266C11.5016 11.2996 11.23 11.9411 11.23 12.61V21.0169C11.23 21.6858 11.5016 22.3273 11.9851 22.8003C12.4686 23.2733 13.1243 23.539 13.8081 23.539H18.105V31.1052C18.105 31.3282 18.1955 31.542 18.3567 31.6997C18.5178 31.8573 18.7364 31.9459 18.9644 31.9459H23.2612V38.6715H13.8081C13.1243 38.6715 12.4686 38.9372 11.9851 39.4102C11.5016 39.8831 11.23 40.5246 11.23 41.1935V49.6005C11.23 50.2694 11.5016 50.9109 11.9851 51.3838C12.4686 51.8568 13.1243 52.1225 13.8081 52.1225H22.4019C23.0856 52.1225 23.7414 51.8568 24.2249 51.3838C24.7084 50.9109 24.98 50.2694 24.98 49.6005V40.3528H40.4487V49.6005C40.4487 50.2694 40.7204 50.9109 41.2038 51.3838C41.6873 51.8568 42.3431 52.1225 43.0269 52.1225H51.6206C52.3044 52.1225 52.9601 51.8568 53.4436 51.3838C53.9271 50.9109 54.1987 50.2694 54.1987 49.6005V41.1935C54.1987 40.5246 53.9271 39.8831 53.4436 39.4102C52.9601 38.9372 52.3044 38.6715 51.6206 38.6715H42.1675V31.1052C42.1675 30.8823 42.0769 30.6684 41.9158 30.5108C41.7546 30.3531 41.536 30.2645 41.3081 30.2645H35.2925V23.539H51.6206Z" fill="#CBC2EC"/>
<path d="M17.2456 1.68164H3.49561C2.81184 1.68164 2.15609 1.94736 1.6726 2.42034C1.1891 2.89332 0.91748 3.53482 0.91748 4.20372V17.6548C0.91748 18.3237 1.1891 18.9652 1.6726 19.4382C2.15609 19.9112 2.81184 20.1769 3.49561 20.1769H17.2456C17.9294 20.1769 18.5851 19.9112 19.0686 19.4382C19.5521 18.9652 19.8237 18.3237 19.8237 17.6548V4.20372C19.8237 3.53482 19.5521 2.89332 19.0686 2.42034C18.5851 1.94736 17.9294 1.68164 17.2456 1.68164ZM18.105 17.6548C18.105 17.8778 18.0144 18.0916 17.8533 18.2493C17.6921 18.4069 17.4735 18.4955 17.2456 18.4955H3.49561C3.26768 18.4955 3.0491 18.4069 2.88794 18.2493C2.72677 18.0916 2.63623 17.8778 2.63623 17.6548V4.20372C2.63623 3.98075 2.72677 3.76692 2.88794 3.60926C3.0491 3.4516 3.26768 3.36303 3.49561 3.36303H17.2456C17.4735 3.36303 17.6921 3.4516 17.8533 3.60926C18.0144 3.76692 18.105 3.98075 18.105 4.20372V17.6548Z" fill="#6654A4"/>
<path d="M17.2456 25.2207H3.49561C2.81184 25.2207 2.15609 25.4864 1.6726 25.9594C1.1891 26.4324 0.91748 27.0739 0.91748 27.7428V41.1939C0.91748 41.8628 1.1891 42.5043 1.6726 42.9773C2.15609 43.4502 2.81184 43.716 3.49561 43.716H17.2456C17.9294 43.716 18.5851 43.4502 19.0686 42.9773C19.5521 42.5043 19.8237 41.8628 19.8237 41.1939V27.7428C19.8237 27.0739 19.5521 26.4324 19.0686 25.9594C18.5851 25.4864 17.9294 25.2207 17.2456 25.2207ZM18.105 41.1939C18.105 41.4168 18.0144 41.6307 17.8533 41.7883C17.6921 41.946 17.4735 42.0346 17.2456 42.0346H3.49561C3.26768 42.0346 3.0491 41.946 2.88794 41.7883C2.72677 41.6307 2.63623 41.4168 2.63623 41.1939V27.7428C2.63623 27.5198 2.72677 27.306 2.88794 27.1483C3.0491 26.9907 3.26768 26.9021 3.49561 26.9021H17.2456C17.4735 26.9021 17.6921 26.9907 17.8533 27.1483C18.0144 27.306 18.105 27.5198 18.105 27.7428V41.1939Z" fill="#6654A4"/>
<path d="M41.3081 1.68164H27.5581C26.8743 1.68164 26.2186 1.94736 25.7351 2.42034C25.2516 2.89332 24.98 3.53482 24.98 4.20372V17.6548C24.98 18.3237 25.2516 18.9652 25.7351 19.4382C26.2186 19.9112 26.8743 20.1769 27.5581 20.1769H41.3081C41.9919 20.1769 42.6476 19.9112 43.1311 19.4382C43.6146 18.9652 43.8862 18.3237 43.8862 17.6548V4.20372C43.8862 3.53482 43.6146 2.89332 43.1311 2.42034C42.6476 1.94736 41.9919 1.68164 41.3081 1.68164ZM42.1675 17.6548C42.1675 17.8778 42.0769 18.0916 41.9158 18.2493C41.7546 18.4069 41.536 18.4955 41.3081 18.4955H27.5581C27.3302 18.4955 27.1116 18.4069 26.9504 18.2493C26.7893 18.0916 26.6987 17.8778 26.6987 17.6548V4.20372C26.6987 3.98075 26.7893 3.76692 26.9504 3.60926C27.1116 3.4516 27.3302 3.36303 27.5581 3.36303H41.3081C41.536 3.36303 41.7546 3.4516 41.9158 3.60926C42.0769 3.76692 42.1675 3.98075 42.1675 4.20372V17.6548Z" fill="#6654A4"/>
<path d="M10.3706 7.56641C9.69073 7.56641 9.02613 7.76363 8.46084 8.13314C7.89554 8.50264 7.45495 9.02783 7.19477 9.6423C6.93459 10.2568 6.86652 10.9329 6.99916 11.5852C7.13179 12.2375 7.45918 12.8367 7.93993 13.307C8.42067 13.7773 9.03317 14.0976 9.69998 14.2273C10.3668 14.3571 11.058 14.2905 11.6861 14.036C12.3142 13.7815 12.8511 13.3504 13.2288 12.7974C13.6065 12.2444 13.8081 11.5943 13.8081 10.9292C13.8081 10.0373 13.4459 9.18198 12.8013 8.55134C12.1566 7.9207 11.2823 7.56641 10.3706 7.56641ZM10.3706 12.6106C10.0307 12.6106 9.69837 12.512 9.41572 12.3272C9.13307 12.1424 8.91278 11.8798 8.78269 11.5726C8.6526 11.2654 8.61856 10.9273 8.68488 10.6012C8.7512 10.275 8.9149 9.9754 9.15527 9.74026C9.39564 9.50511 9.70189 9.34498 10.0353 9.2801C10.3687 9.21522 10.7143 9.24852 11.0283 9.37578C11.3424 9.50304 11.6108 9.71855 11.7997 9.99505C11.9886 10.2716 12.0894 10.5966 12.0894 10.9292C12.0894 11.3751 11.9083 11.8028 11.5859 12.1181C11.2636 12.4334 10.8264 12.6106 10.3706 12.6106Z" fill="#6654A4"/>
<path d="M34.4331 7.56641C33.7532 7.56641 33.0886 7.76363 32.5233 8.13314C31.958 8.50264 31.5174 9.02783 31.2573 9.6423C30.9971 10.2568 30.929 10.9329 31.0617 11.5852C31.1943 12.2375 31.5217 12.8367 32.0024 13.307C32.4832 13.7773 33.0957 14.0976 33.7625 14.2273C34.4293 14.3571 35.1205 14.2905 35.7486 14.036C36.3767 13.7815 36.9136 13.3504 37.2913 12.7974C37.669 12.2444 37.8706 11.5943 37.8706 10.9292C37.8706 10.0373 37.5084 9.18198 36.8638 8.55134C36.2191 7.9207 35.3448 7.56641 34.4331 7.56641ZM34.4331 12.6106C34.0932 12.6106 33.7609 12.512 33.4782 12.3272C33.1956 12.1424 32.9753 11.8798 32.8452 11.5726C32.7151 11.2654 32.6811 10.9273 32.7474 10.6012C32.8137 10.275 32.9774 9.9754 33.2178 9.74026C33.4581 9.50511 33.7644 9.34498 34.0978 9.2801C34.4312 9.21522 34.7768 9.24852 35.0908 9.37578C35.4049 9.50304 35.6733 9.71855 35.8622 9.99505C36.0511 10.2716 36.1519 10.5966 36.1519 10.9292C36.1519 11.3751 35.9708 11.8028 35.6484 12.1181C35.3261 12.4334 34.8889 12.6106 34.4331 12.6106Z" fill="#6654A4"/>
<path d="M10.3706 31.1055C9.69073 31.1055 9.02613 31.3027 8.46084 31.6722C7.89554 32.0417 7.45495 32.5669 7.19477 33.1814C6.93459 33.7958 6.86652 34.472 6.99916 35.1243C7.13179 35.7766 7.45918 36.3758 7.93993 36.8461C8.42067 37.3164 9.03317 37.6366 9.69998 37.7664C10.3668 37.8962 11.058 37.8296 11.6861 37.575C12.3142 37.3205 12.8511 36.8895 13.2288 36.3365C13.6065 35.7835 13.8081 35.1333 13.8081 34.4682C13.8081 33.5764 13.4459 32.721 12.8013 32.0904C12.1566 31.4598 11.2823 31.1055 10.3706 31.1055ZM10.3706 36.1496C10.0307 36.1496 9.69837 36.051 9.41572 35.8663C9.13307 35.6815 8.91278 35.4189 8.78269 35.1117C8.6526 34.8044 8.61856 34.4664 8.68488 34.1402C8.7512 33.8141 8.9149 33.5145 9.15527 33.2793C9.39564 33.0442 9.70189 32.884 10.0353 32.8192C10.3687 32.7543 10.7143 32.7876 11.0283 32.9148C11.3424 33.0421 11.6108 33.2576 11.7997 33.5341C11.9886 33.8106 12.0894 34.1357 12.0894 34.4682C12.0894 34.9142 11.9083 35.3418 11.5859 35.6572C11.2636 35.9725 10.8264 36.1496 10.3706 36.1496Z" fill="#6654A4"/>
<path d="M40.4487 31.9464H35.2925V28.5836C35.2925 27.9147 35.0209 27.2732 34.5374 26.8002C34.0539 26.3272 33.3981 26.0615 32.7144 26.0615H27.5581C26.8743 26.0615 26.2186 26.3272 25.7351 26.8002C25.2516 27.2732 24.98 27.9147 24.98 28.5836V33.6278C24.98 34.2967 25.2516 34.9382 25.7351 35.4111C26.2186 35.8841 26.8743 36.1498 27.5581 36.1498H30.9956V41.194C30.9956 41.8629 31.2672 42.5044 31.7507 42.9774C32.2342 43.4504 32.89 43.7161 33.5737 43.7161H40.4487C41.1325 43.7161 41.7882 43.4504 42.2717 42.9774C42.7552 42.5044 43.0269 41.8629 43.0269 41.194V34.4685C43.0269 33.7996 42.7552 33.1581 42.2717 32.6851C41.7882 32.2121 41.1325 31.9464 40.4487 31.9464ZM41.3081 41.194C41.3081 41.417 41.2176 41.6308 41.0564 41.7885C40.8952 41.9461 40.6767 42.0347 40.4487 42.0347H33.5737C33.3458 42.0347 33.1272 41.9461 32.9661 41.7885C32.8049 41.6308 32.7144 41.417 32.7144 41.194V35.3091C32.7144 35.0862 32.6238 34.8723 32.4627 34.7147C32.3015 34.557 32.0829 34.4685 31.855 34.4685H27.5581C27.3302 34.4685 27.1116 34.3799 26.9504 34.2222C26.7893 34.0646 26.6987 33.8507 26.6987 33.6278V28.5836C26.6987 28.3606 26.7893 28.1468 26.9504 27.9891C27.1116 27.8315 27.3302 27.7429 27.5581 27.7429H32.7144C32.9423 27.7429 33.1609 27.8315 33.322 27.9891C33.4832 28.1468 33.5737 28.3606 33.5737 28.5836V32.7871C33.5737 33.01 33.6643 33.2239 33.8254 33.3815C33.9866 33.5392 34.2052 33.6278 34.4331 33.6278H40.4487C40.6767 33.6278 40.8952 33.7163 41.0564 33.874C41.2176 34.0317 41.3081 34.2455 41.3081 34.4685V41.194Z" fill="#6654A4"/>
</g>
<defs>
<clipPath id="clip0">
<rect width="55" height="53.8043" fill="white" transform="translate(0.0581055)"/>
</clipPath>
</defs>
</svg>
