<svg width="56" height="55" viewBox="0 0 56 55" fill="none" xmlns="http://www.w3.org/2000/svg">
<g clip-path="url(#clip0)">
<path d="M51.0477 13.9531H24.6935C22.4821 13.9531 20.6831 15.713 20.6831 17.8764V32.4484C20.6831 34.6118 22.4821 36.3716 24.6935 36.3716H51.0477C53.2591 36.3716 55.0581 34.6118 55.0581 32.4484V17.8764C55.0581 15.713 53.2591 13.9531 51.0477 13.9531Z" fill="#6654A4"/>
<path d="M37.8709 20.6787C35.3432 20.6787 33.2876 22.6896 33.2876 25.1624C33.2876 27.6352 35.3432 29.6461 37.8709 29.6461C40.3986 29.6461 42.4543 27.6352 42.4543 25.1624C42.4543 22.6896 40.3986 20.6787 37.8709 20.6787Z" fill="#FAFAFA"/>
<path d="M33.2873 39.7343V48.2376C33.2873 49.7307 32.0704 50.9435 30.5762 50.9435H6.20665C4.71248 50.9435 3.49561 49.7307 3.49561 48.2376V6.57063C3.49561 5.07756 4.71248 3.86472 6.20665 3.86472H6.36019H7.50602C8.45477 3.86472 9.22477 4.61799 9.22477 5.54611C9.22477 7.70949 11.0237 9.46934 13.2352 9.46934H23.5477C25.7592 9.46934 27.5581 7.70949 27.5581 5.54611C27.5581 4.61799 28.3281 3.86472 29.2769 3.86472H30.4227H30.5762C32.0704 3.86472 33.2873 5.07756 33.2873 6.57063V10.5903H36.7248V6.57063C36.7248 3.22356 33.9656 0.501953 30.5762 0.501953H30.4227H29.2769H7.50602H6.36019H6.20665C2.81727 0.501953 0.0581055 3.22356 0.0581055 6.57063V48.2399C0.0581055 51.5847 2.81727 54.3063 6.20665 54.3063H30.5762C33.9656 54.3063 36.7248 51.5847 36.7248 48.2376V39.7343H33.2873Z" fill="#6654A4"/>
<path d="M24.6935 39.7338C20.5869 39.7338 17.2456 36.4652 17.2456 32.4478V17.8758C17.2456 13.8584 20.5869 10.5898 24.6935 10.5898H33.2873V6.57017C33.2873 5.0771 32.0704 3.86426 30.5762 3.86426H30.4227H29.2769C28.3281 3.86426 27.5581 4.61752 27.5581 5.54564C27.5581 7.70903 25.7591 9.46888 23.5477 9.46888H13.2352C11.0237 9.46888 9.22477 7.70903 9.22477 5.54564C9.22477 4.61752 8.45477 3.86426 7.50602 3.86426H6.36019H6.20665C4.71248 3.86426 3.49561 5.0771 3.49561 6.57017V48.2394C3.49561 49.7325 4.71248 50.9453 6.20665 50.9453H30.5762C32.0704 50.9453 33.2873 49.7325 33.2873 48.2394V39.7338H24.6935Z" fill="#FAFAFA"/>
<path d="M28.1307 26.8442H26.9849C26.0361 26.8442 25.2661 26.091 25.2661 25.1628C25.2661 24.2347 26.0361 23.4814 26.9849 23.4814H28.1307C29.0795 23.4814 29.8495 24.2347 29.8495 25.1628C29.8495 26.091 29.0795 26.8442 28.1307 26.8442Z" fill="#CBC2EC"/>
<path d="M27.5578 23.4814H26.9849C26.0361 23.4814 25.2661 24.2347 25.2661 25.1628C25.2661 26.091 26.0361 26.8442 26.9849 26.8442H27.5578V23.4814Z" fill="#CBC2EC"/>
<path d="M48.7557 26.8442H47.6099C46.6611 26.8442 45.8911 26.091 45.8911 25.1628C45.8911 24.2347 46.6611 23.4814 47.6099 23.4814H48.7557C49.7044 23.4814 50.4744 24.2347 50.4744 25.1628C50.4744 26.091 49.7044 26.8442 48.7557 26.8442Z" fill="#CBC2EC"/>
<path d="M48.1828 23.4814H47.6099C46.6611 23.4814 45.8911 24.2347 45.8911 25.1628C45.8911 26.091 46.6611 26.8442 47.6099 26.8442H48.1828V23.4814Z" fill="#CBC2EC"/>
</g>
<defs>
<clipPath id="clip0">
<rect width="55" height="53.8043" fill="white" transform="translate(0.0581055 0.501953)"/>
</clipPath>
</defs>
</svg>
