<svg width="214" height="45" viewBox="0 0 214 45" fill="none" xmlns="http://www.w3.org/2000/svg">
<path d="M72.9248 35.3521C72.9248 35.583 72.8444 35.7621 72.6876 35.8895C72.5268 36.0208 72.2775 36.1124 71.9358 36.1721C71.594 36.2278 71.0915 36.2557 70.4241 36.2557C69.7085 36.2557 69.1899 36.2278 68.8642 36.1721C68.5386 36.1164 68.3094 36.0208 68.1727 35.8895C68.0361 35.7581 67.9717 35.579 67.9717 35.3521V33.6126C67.0993 34.5759 66.1023 35.3282 64.9806 35.8656C63.8589 36.403 62.6167 36.6736 61.2538 36.6736C60.1281 36.6736 59.0908 36.5224 58.1461 36.2199C57.2013 35.9173 56.3811 35.4675 55.6937 34.8744C55.0022 34.2774 54.4675 33.541 54.0855 32.6573C53.7036 31.7736 53.5146 30.7466 53.5146 29.5724C53.5146 28.2986 53.7559 27.192 54.2423 26.2526C54.7288 25.3132 55.4484 24.537 56.4093 23.928C57.3701 23.315 58.5642 22.8612 59.9954 22.5666C61.4266 22.2721 63.083 22.1248 64.9766 22.1248H67.0511V20.8032C67.0511 20.1186 66.9827 19.5175 66.8501 19.004C66.7134 18.4905 66.4922 18.0606 66.1827 17.7183C65.8731 17.376 65.459 17.1212 64.9444 16.958C64.4258 16.7948 63.7906 16.7112 63.0267 16.7112C62.0257 16.7112 61.1332 16.8267 60.3452 17.0536C59.5572 17.2844 58.8657 17.5352 58.2626 17.8138C57.6596 18.0925 57.153 18.3433 56.751 18.5741C56.345 18.805 56.0153 18.9165 55.762 18.9165C55.5891 18.9165 55.4323 18.8607 55.2956 18.7453C55.159 18.6299 55.0504 18.4667 54.962 18.2557C54.8735 18.0447 54.8092 17.782 54.761 17.4715C54.7127 17.161 54.6886 16.8187 54.6886 16.4445C54.6886 15.939 54.7288 15.537 54.8092 15.2464C54.8896 14.9518 55.0384 14.6891 55.2635 14.4503C55.4846 14.2154 55.8746 13.9527 56.4294 13.6661C56.9842 13.3795 57.6355 13.1168 58.3833 12.87C59.131 12.6232 59.9431 12.4242 60.8236 12.269C61.704 12.1137 62.6126 12.0381 63.5534 12.0381C65.2218 12.0381 66.645 12.2053 67.831 12.5396C69.013 12.874 69.9859 13.3875 70.7498 14.0841C71.5136 14.7807 72.0684 15.6723 72.4182 16.767C72.768 17.8616 72.9408 19.1593 72.9408 20.6599V35.3521H72.9248ZM67.043 25.9978H64.7555C63.7866 25.9978 62.9624 26.0695 62.279 26.2168C61.5955 26.364 61.0407 26.583 60.6105 26.8775C60.1803 27.1721 59.8668 27.5264 59.6698 27.9443C59.4728 28.3583 59.3723 28.8399 59.3723 29.3773C59.3723 30.2928 59.6537 31.0093 60.2165 31.5308C60.7794 32.0522 61.5633 32.315 62.5644 32.315C63.4046 32.315 64.1806 32.096 64.8881 31.6542C65.5957 31.2123 66.3154 30.5675 67.043 29.7196V25.9978Z" fill="#6654A4"/>
<path d="M93.8663 29.1057C93.8663 30.3477 93.6411 31.4423 93.1868 32.3857C92.7325 33.3331 92.0933 34.1252 91.2691 34.7621C90.445 35.399 89.468 35.8766 88.3383 36.1951C87.2086 36.5135 85.9864 36.6727 84.6678 36.6727C83.8718 36.6727 83.1159 36.613 82.3923 36.4896C81.6686 36.3662 81.0213 36.211 80.4505 36.0239C79.8796 35.8368 79.4012 35.6458 79.0192 35.4467C78.6373 35.2477 78.3599 35.0686 78.187 34.8974C78.0141 34.7263 77.8775 34.4556 77.781 34.0894C77.6845 33.7232 77.6362 33.1778 77.6362 32.4613C77.6362 31.9877 77.6523 31.6095 77.6845 31.3229C77.7166 31.0363 77.7649 30.8094 77.8292 30.6382C77.8935 30.4671 77.9739 30.3517 78.0664 30.2959C78.1589 30.2402 78.2795 30.2084 78.4242 30.2084C78.5971 30.2084 78.8584 30.3118 79.2001 30.5149C79.5419 30.7179 79.968 30.9447 80.4746 31.1876C80.9811 31.4344 81.5721 31.6612 82.2475 31.8722C82.923 32.0832 83.6868 32.1907 84.5472 32.1907C85.0859 32.1907 85.5683 32.1349 85.9864 32.0195C86.4086 31.9041 86.7744 31.7409 87.084 31.5299C87.3936 31.3189 87.6267 31.0482 87.7875 30.7218C87.9443 30.3954 88.0247 30.0213 88.0247 29.5953C88.0247 29.1057 87.876 28.6838 87.5825 28.3335C87.289 27.9832 86.8991 27.6767 86.4166 27.414C85.9302 27.1513 85.3834 26.9085 84.7723 26.6776C84.1612 26.4507 83.534 26.196 82.8908 25.9173C82.2475 25.6387 81.6204 25.3202 81.0093 24.962C80.3982 24.6037 79.8514 24.1619 79.365 23.6405C78.8785 23.119 78.4926 22.4901 78.1991 21.7537C77.9056 21.0173 77.7568 20.1376 77.7568 19.1106C77.7568 18.0677 77.9538 17.1084 78.3518 16.2327C78.7499 15.3609 79.3207 14.6126 80.0685 13.9916C80.8163 13.3707 81.7249 12.889 82.7983 12.5467C83.8718 12.2044 85.0738 12.0332 86.4086 12.0332C87.0759 12.0332 87.7232 12.081 88.3504 12.1805C88.9776 12.28 89.5444 12.3994 90.055 12.5467C90.5616 12.694 90.9917 12.8532 91.3415 13.0244C91.6913 13.1955 91.9405 13.3428 92.0933 13.4662C92.2461 13.5896 92.3506 13.713 92.4149 13.8324C92.4793 13.9518 92.5275 14.1031 92.5597 14.2742C92.5918 14.4454 92.62 14.6564 92.6441 14.9111C92.6682 15.1659 92.6803 15.4804 92.6803 15.8545C92.6803 16.2964 92.6682 16.6546 92.6441 16.9332C92.62 17.2119 92.5798 17.4308 92.5235 17.594C92.4672 17.7572 92.3908 17.8687 92.2984 17.9244C92.2059 17.9801 92.0933 18.008 91.9647 18.008C91.8199 18.008 91.5988 17.9244 91.2973 17.7493C90.9958 17.5781 90.6179 17.395 90.1636 17.1999C89.7093 17.0049 89.1866 16.8218 88.5916 16.6506C87.9966 16.4795 87.3172 16.3919 86.5533 16.3919C86.0146 16.3919 85.5442 16.4476 85.1462 16.5631C84.7482 16.6785 84.4225 16.8417 84.1693 17.0527C83.916 17.2636 83.723 17.5144 83.5984 17.801C83.4697 18.0876 83.4094 18.3941 83.4094 18.7205C83.4094 19.226 83.5622 19.652 83.8637 19.9943C84.1652 20.3366 84.5632 20.6391 85.0537 20.9018C85.5442 21.1646 86.1071 21.4074 86.7342 21.6382C87.3614 21.8691 87.9966 22.1159 88.6399 22.3866C89.2831 22.6573 89.9183 22.9717 90.5455 23.33C91.1727 23.6882 91.7315 24.1301 92.226 24.6515C92.7165 25.173 93.1145 25.7979 93.416 26.5264C93.7175 27.2508 93.8663 28.1106 93.8663 29.1057Z" fill="#6654A4"/>
<path d="M110.004 36.1115L107.431 43.8497C107.287 44.2557 106.901 44.5502 106.265 44.7294C105.63 44.9085 104.701 45 103.479 45C102.844 45 102.337 44.9722 101.956 44.9125C101.574 44.8567 101.288 44.7612 101.099 44.6298C100.91 44.4985 100.806 44.3353 100.79 44.1402C100.774 43.9452 100.822 43.7064 100.934 43.4317L103.769 36.1075C103.564 36.008 103.375 35.8567 103.21 35.6537C103.041 35.4507 102.92 35.2358 102.84 35.0049L95.519 14.9271C95.314 14.3578 95.2095 13.92 95.2095 13.6175C95.2095 13.3149 95.306 13.0801 95.4949 12.9089C95.6839 12.7378 96.0055 12.6184 96.4598 12.5547C96.9141 12.491 97.5131 12.4552 98.2569 12.4552C98.9403 12.4552 99.479 12.4671 99.8771 12.491C100.275 12.5149 100.585 12.5746 100.806 12.6741C101.027 12.7736 101.196 12.9249 101.304 13.1279C101.413 13.3309 101.525 13.6214 101.638 13.9956L106.639 28.6161H106.712L111.287 13.7011C111.383 13.2751 111.504 12.9965 111.657 12.8572C111.809 12.7179 112.059 12.6184 112.408 12.5507C112.758 12.487 113.369 12.4512 114.242 12.4512C114.925 12.4512 115.492 12.483 115.946 12.5507C116.401 12.6184 116.734 12.7378 116.947 12.9169C117.16 13.096 117.269 13.3388 117.269 13.6414C117.269 13.9439 117.205 14.2981 117.08 14.7081L110.004 36.1115Z" fill="#6654A4"/>
<path d="M145.118 31.3113C145.118 31.7213 145.106 32.0676 145.081 32.3542C145.057 32.6408 145.021 32.8836 144.973 33.0906C144.925 33.2936 144.86 33.4687 144.784 33.616C144.704 33.7633 144.579 33.9305 144.402 34.1176C144.225 34.3047 143.891 34.5475 143.389 34.838C142.886 35.1326 142.275 35.4152 141.556 35.6819C140.832 35.9526 140.008 36.1755 139.079 36.3546C138.15 36.5338 137.145 36.6253 136.064 36.6253C133.953 36.6253 132.044 36.2909 130.347 35.6222C128.646 34.9535 127.203 33.9544 126.009 32.6209C124.819 31.2914 123.902 29.6315 123.271 27.6372C122.636 25.647 122.318 23.3263 122.318 20.6832C122.318 17.9884 122.668 15.5961 123.368 13.5063C124.067 11.4166 125.044 9.66113 126.298 8.24008C127.553 6.81903 129.056 5.7403 130.813 5.00788C132.57 4.27546 134.5 3.90527 136.615 3.90527C137.471 3.90527 138.299 3.97692 139.091 4.1242C139.883 4.27148 140.619 4.46255 141.294 4.70138C141.97 4.93623 142.577 5.21089 143.115 5.52137C143.654 5.83185 144.032 6.09855 144.245 6.31748C144.458 6.53641 144.607 6.71951 144.687 6.86679C144.768 7.01407 144.832 7.20116 144.876 7.43203C144.925 7.6629 144.961 7.9296 144.985 8.24008C145.009 8.55056 145.021 8.93269 145.021 9.39046C145.021 9.88006 145.005 10.298 144.973 10.6403C144.941 10.9827 144.884 11.2613 144.804 11.4723C144.724 11.6832 144.627 11.8385 144.519 11.938C144.406 12.0375 144.281 12.0853 144.137 12.0853C143.899 12.0853 143.598 11.942 143.232 11.6554C142.866 11.3688 142.396 11.0503 141.813 10.7001C141.234 10.3498 140.542 10.0313 139.738 9.74472C138.934 9.45813 137.978 9.31483 136.868 9.31483C135.646 9.31483 134.552 9.57356 133.591 10.0871C132.63 10.6005 131.814 11.3369 131.139 12.2923C130.464 13.2476 129.953 14.402 129.603 15.7593C129.253 17.1167 129.081 18.6412 129.081 20.3369C129.081 22.1998 129.265 23.812 129.639 25.1733C130.013 26.5386 130.544 27.6611 131.235 28.5408C131.927 29.4205 132.759 30.0813 133.736 30.5112C134.713 30.9451 135.815 31.16 137.037 31.16C138.146 31.16 139.111 31.0247 139.919 30.754C140.727 30.4833 141.423 30.1888 142.002 29.8584C142.581 29.532 143.059 29.2374 143.433 28.9787C143.807 28.716 144.096 28.5886 144.301 28.5886C144.458 28.5886 144.587 28.6204 144.683 28.6881C144.78 28.7518 144.856 28.8832 144.921 29.0782C144.985 29.2733 145.033 29.5479 145.065 29.8982C145.097 30.2485 145.118 30.7222 145.118 31.3113Z" fill="#F05665"/>
<path d="M167.37 35.3511C167.37 35.582 167.29 35.7611 167.133 35.8885C166.972 36.0199 166.723 36.1114 166.381 36.1711C166.039 36.2268 165.537 36.2547 164.869 36.2547C164.154 36.2547 163.635 36.2268 163.31 36.1711C162.984 36.1154 162.755 36.0199 162.618 35.8885C162.481 35.7571 162.417 35.578 162.417 35.3511V33.6116C161.545 34.5749 160.548 35.3272 159.426 35.8646C158.304 36.402 157.062 36.6727 155.699 36.6727C154.573 36.6727 153.536 36.5214 152.591 36.2189C151.647 35.9164 150.826 35.4666 150.139 34.8735C149.447 34.2764 148.913 33.54 148.531 32.6563C148.149 31.7726 147.96 30.7456 147.96 29.5714C147.96 28.2976 148.201 27.191 148.688 26.2516C149.174 25.3122 149.894 24.536 150.855 23.927C151.815 23.314 153.009 22.8602 154.441 22.5656C155.872 22.2711 157.528 22.1238 159.422 22.1238H161.496V20.8023C161.496 20.1176 161.428 19.5165 161.295 19.0031C161.159 18.4896 160.938 18.0597 160.628 17.7173C160.318 17.375 159.904 17.1203 159.39 16.9571C158.871 16.7939 158.236 16.7103 157.472 16.7103C156.471 16.7103 155.578 16.8257 154.79 17.0526C154.002 17.2835 153.311 17.5342 152.708 17.8129C152.105 18.0915 151.598 18.3423 151.196 18.5732C150.79 18.804 150.461 18.9155 150.207 18.9155C150.034 18.9155 149.878 18.8598 149.741 18.7443C149.604 18.6289 149.496 18.4657 149.407 18.2547C149.319 18.0437 149.255 17.781 149.206 17.4705C149.158 17.1601 149.134 16.8177 149.134 16.4436C149.134 15.938 149.174 15.536 149.255 15.2454C149.335 14.9509 149.484 14.6881 149.709 14.4493C149.93 14.2145 150.32 13.9517 150.875 13.6652C151.429 13.3786 152.081 13.1158 152.829 12.869C153.576 12.6222 154.388 12.4232 155.269 12.268C156.149 12.1127 157.058 12.0371 157.999 12.0371C159.667 12.0371 161.09 12.2043 162.276 12.5387C163.458 12.873 164.431 13.3865 165.195 14.0831C165.959 14.7797 166.514 15.6713 166.863 16.766C167.213 17.8606 167.386 19.1583 167.386 20.659V35.3511H167.37ZM161.484 25.9969H159.197C158.228 25.9969 157.404 26.0685 156.72 26.2158C156.037 26.3631 155.482 26.582 155.052 26.8766C154.622 27.1711 154.308 27.5254 154.111 27.9433C153.914 28.3573 153.814 28.839 153.814 29.3763C153.814 30.2919 154.095 31.0084 154.658 31.5298C155.221 32.0513 156.005 32.314 157.006 32.314C157.846 32.314 158.622 32.095 159.329 31.6532C160.037 31.2114 160.757 30.5665 161.484 29.7187V25.9969Z" fill="#F05665"/>
<path d="M188.312 29.1057C188.312 30.3477 188.087 31.4423 187.633 32.3857C187.178 33.3331 186.539 34.1252 185.715 34.7621C184.891 35.399 183.914 35.8766 182.784 36.1951C181.654 36.5135 180.432 36.6727 179.114 36.6727C178.318 36.6727 177.562 36.613 176.838 36.4896C176.114 36.3662 175.467 36.211 174.896 36.0239C174.325 35.8368 173.847 35.6458 173.465 35.4467C173.083 35.2477 172.806 35.0686 172.633 34.8974C172.46 34.7263 172.323 34.4556 172.227 34.0894C172.13 33.7232 172.082 33.1778 172.082 32.4613C172.082 31.9877 172.098 31.6095 172.13 31.3229C172.162 31.0363 172.211 30.8094 172.275 30.6382C172.339 30.4671 172.42 30.3517 172.512 30.2959C172.605 30.2402 172.725 30.2084 172.87 30.2084C173.043 30.2084 173.304 30.3118 173.646 30.5149C173.988 30.7179 174.414 30.9447 174.92 31.1876C175.427 31.4344 176.018 31.6612 176.693 31.8722C177.369 32.0832 178.133 32.1907 178.993 32.1907C179.532 32.1907 180.014 32.1349 180.432 32.0195C180.854 31.9041 181.22 31.7409 181.53 31.5299C181.839 31.3189 182.073 31.0482 182.233 30.7218C182.39 30.3954 182.471 30.0213 182.471 29.5953C182.471 29.1057 182.322 28.6838 182.028 28.3335C181.735 27.9832 181.345 27.6767 180.862 27.414C180.376 27.1513 179.829 26.9085 179.218 26.6776C178.607 26.4507 177.98 26.196 177.337 25.9173C176.693 25.6387 176.066 25.3202 175.455 24.962C174.844 24.6037 174.297 24.1619 173.811 23.6405C173.324 23.119 172.938 22.4901 172.645 21.7537C172.351 21.0173 172.203 20.1376 172.203 19.1106C172.203 18.0677 172.4 17.1084 172.798 16.2327C173.196 15.3609 173.767 14.6126 174.514 13.9916C175.262 13.3707 176.171 12.889 177.244 12.5467C178.318 12.2044 179.52 12.0332 180.854 12.0332C181.522 12.0332 182.169 12.081 182.796 12.1805C183.423 12.28 183.99 12.3994 184.501 12.5467C185.007 12.694 185.438 12.8532 185.787 13.0244C186.137 13.1955 186.386 13.3428 186.539 13.4662C186.692 13.5896 186.796 13.713 186.861 13.8324C186.925 13.9518 186.973 14.1031 187.005 14.2742C187.038 14.4454 187.066 14.6564 187.09 14.9111C187.114 15.1659 187.126 15.4804 187.126 15.8545C187.126 16.2964 187.114 16.6546 187.09 16.9332C187.066 17.2119 187.026 17.4308 186.969 17.594C186.913 17.7572 186.837 17.8687 186.744 17.9244C186.652 17.9801 186.539 18.008 186.41 18.008C186.266 18.008 186.045 17.9244 185.743 17.7493C185.442 17.5781 185.064 17.395 184.609 17.1999C184.155 17.0049 183.632 16.8218 183.037 16.6506C182.442 16.4795 181.763 16.3919 180.999 16.3919C180.46 16.3919 179.99 16.4476 179.592 16.5631C179.194 16.6785 178.868 16.8417 178.615 17.0527C178.362 17.2636 178.169 17.5144 178.044 17.801C177.916 18.0876 177.855 18.3941 177.855 18.7205C177.855 19.226 178.008 19.652 178.309 19.9943C178.611 20.3366 179.009 20.6391 179.5 20.9018C179.99 21.1646 180.553 21.4074 181.18 21.6382C181.807 21.8691 182.442 22.1159 183.086 22.3866C183.729 22.6573 184.364 22.9717 184.991 23.33C185.618 23.6882 186.177 24.1301 186.672 24.6515C187.162 25.173 187.56 25.7979 187.862 26.5264C188.159 27.2508 188.312 28.1106 188.312 29.1057Z" fill="#F05665"/>
<path d="M213.113 35.2759C213.113 35.4391 213.065 35.5824 212.968 35.7058C212.872 35.8292 212.715 35.9287 212.494 36.0123C212.273 36.0959 211.967 36.1556 211.577 36.1954C211.187 36.2352 210.709 36.2551 210.138 36.2551C209.551 36.2551 209.061 36.2352 208.675 36.1954C208.289 36.1556 207.979 36.0959 207.758 36.0123C207.537 35.9287 207.376 35.8292 207.284 35.7058C207.187 35.5824 207.139 35.4391 207.139 35.2759V22.8128C207.139 21.75 207.063 20.9181 206.914 20.313C206.761 19.708 206.544 19.1905 206.259 18.7566C205.973 18.3228 205.603 17.9884 205.153 17.7536C204.703 17.5187 204.172 17.3993 203.569 17.3993C202.805 17.3993 202.037 17.6859 201.257 18.2551C200.477 18.8283 199.669 19.6602 198.829 20.7549V35.2759C198.829 35.4391 198.781 35.5824 198.684 35.7058C198.588 35.8292 198.427 35.9287 198.198 36.0123C197.969 36.0959 197.663 36.1556 197.281 36.1954C196.899 36.2352 196.417 36.2551 195.826 36.2551C195.235 36.2551 194.752 36.2352 194.374 36.1954C193.997 36.1556 193.687 36.0959 193.458 36.0123C193.229 35.9287 193.064 35.8292 192.971 35.7058C192.875 35.5824 192.827 35.4391 192.827 35.2759V3.07332C192.827 2.91012 192.875 2.76284 192.971 2.63148C193.068 2.50013 193.229 2.39265 193.458 2.3011C193.687 2.20955 193.993 2.14188 194.374 2.09411C194.756 2.04634 195.239 2.02246 195.826 2.02246C196.413 2.02246 196.899 2.04634 197.281 2.09411C197.663 2.14188 197.969 2.21353 198.198 2.3011C198.427 2.39265 198.592 2.50013 198.684 2.63148C198.781 2.76284 198.829 2.91012 198.829 3.07332V15.1463C199.862 14.1034 200.916 13.3232 201.985 12.8057C203.058 12.2923 204.172 12.0335 205.334 12.0335C206.777 12.0335 207.999 12.2803 208.992 12.7699C209.985 13.2595 210.785 13.9283 211.401 14.7761C212.012 15.624 212.454 16.6191 212.723 17.7536C212.993 18.888 213.129 20.2653 213.129 21.8814V35.2759H213.113Z" fill="#F05665"/>
<path d="M44.3485 33.2016V33.5041C44.3485 35.4745 42.3062 37.0866 39.8096 37.0866H24.1826C27.7647 35.5183 30.8121 32.9071 32.967 29.6191H39.8056C42.3062 29.6191 44.3485 31.2313 44.3485 33.2016Z" fill="#F05665"/>
<path d="M48.7141 18.5131V18.8196C48.7141 20.7899 46.6718 22.4021 44.1752 22.4021H35.9536C36.2471 21.0049 36.3999 19.556 36.3999 18.0673C36.3999 17.0005 36.3235 15.9536 36.1707 14.9346H44.1752C46.6678 14.9386 48.7141 16.5427 48.7141 18.5131Z" fill="#F05665"/>
<path d="M53.2809 3.5785V3.88501C53.2809 5.85537 51.2386 7.46351 48.742 7.46351H33.5451C31.732 4.35073 29.1389 1.76338 26.0513 0H48.742C49.0555 0 49.3571 0.0278638 49.6546 0.0716497C49.9481 0.123397 50.2335 0.195046 50.5069 0.278638L50.9049 0.429898C51.4155 0.652808 51.8738 0.951349 52.2437 1.30562C52.8909 1.9226 53.2809 2.71473 53.2809 3.5785Z" fill="#F05665"/>
<path d="M12.3138 19.6396V26.1279C10.0263 26.1916 7.81109 26.4503 5.7366 26.8962C5.20592 24.6511 4.90038 22.1952 4.83203 19.6436H12.3138V19.6396Z" fill="#BAB7B7"/>
<path d="M31.5393 19.6319C31.3383 23.2144 30.1604 26.6058 28.1301 29.4798C26.6506 28.6478 24.95 27.9512 23.0806 27.4139C23.6515 24.9897 23.9851 22.3586 24.0575 19.6279H31.5393V19.6319Z" fill="#6654A4"/>
<path d="M31.5393 17.4465H24.0575C23.9892 14.7238 23.6515 12.0847 23.0806 9.66851C24.95 9.13114 26.6506 8.43455 28.1301 7.59863C30.1563 10.4726 31.3343 13.868 31.5393 17.4465Z" fill="#6654A4"/>
<path d="M12.3147 28.3135V37.0866C11.6393 36.8915 10.9679 36.5054 10.3206 35.9481C9.2834 35.0446 8.33863 33.735 7.5225 32.0472C7.06419 31.1078 6.66617 30.0888 6.31641 29.0021C8.20194 28.608 10.2242 28.3772 12.3147 28.3135Z" fill="#BAB7B7"/>
<path d="M26.7555 5.87942C25.5011 6.55213 24.0699 7.12135 22.51 7.57115C22.12 6.31728 21.6657 5.14302 21.1351 4.06031C20.725 3.21644 20.2787 2.44819 19.8084 1.75956C19.6757 1.56053 19.535 1.36549 19.3983 1.18636C19.2938 1.04306 19.1812 0.907725 19.0767 0.776367C20.4838 1.25005 21.8306 1.91082 23.0849 2.72683C23.6638 3.101 24.2146 3.50702 24.7534 3.95284C25.268 4.37477 25.7625 4.83254 26.2369 5.32214C26.4137 5.50525 26.5866 5.69233 26.7555 5.87942Z" fill="#6654A4"/>
<path d="M20.4392 29.0021C20.0895 30.0928 19.6915 31.1078 19.2331 32.0472C18.417 33.731 17.4763 35.0446 16.435 35.9481C15.7877 36.5054 15.1163 36.8955 14.4409 37.0866V28.3135C16.5315 28.3772 18.5537 28.608 20.4392 29.0021Z" fill="#BAB7B7"/>
<path d="M7.67881 36.3064C6.71796 35.976 5.7772 35.574 4.87665 35.0804C3.29264 34.2206 1.82121 33.11 0.518621 31.7606C0.341727 31.5815 0.168853 31.3944 0 31.2074C0.180914 31.1078 0.361829 31.0123 0.558825 30.9208C1.67647 30.3754 2.90669 29.9017 4.24948 29.5156C4.63945 30.7695 5.10179 31.9438 5.62443 33.0265C6.23954 34.2962 6.93103 35.4028 7.67881 36.3064Z" fill="#6654A4"/>
<path d="M12.3147 0V8.77311C10.2242 8.70942 8.20194 8.47059 6.31641 8.08448C6.66617 6.99381 7.06419 5.97877 7.5225 5.03936C8.33863 3.35559 9.27938 2.04202 10.3206 1.13843C10.9679 0.573198 11.6393 0.195046 12.3147 0Z" fill="#BAB7B7"/>
<path d="M12.3138 10.9587V17.447H4.83203C4.90038 14.8955 5.20994 12.4355 5.7366 10.1865C7.81109 10.6284 10.0263 10.8951 12.3138 10.9587Z" fill="#BAB7B7"/>
<path d="M21.9227 19.6318C21.8544 22.1913 21.5448 24.6513 21.0182 26.8923C18.9477 26.4465 16.7285 26.1918 14.4409 26.1241V19.6318H21.9227Z" fill="#BAB7B7"/>
<path d="M26.7555 31.2074C26.5866 31.3944 26.4137 31.5815 26.2409 31.7606C25.2639 32.7637 24.1985 33.6395 23.0528 34.3759C21.8105 35.1919 20.4717 35.8367 19.0767 36.3024C19.3259 35.9999 19.5712 35.6735 19.8084 35.3272C20.2747 34.6386 20.721 33.8703 21.1351 33.0265C21.6657 31.9438 22.12 30.7695 22.51 29.5156C24.0699 29.9694 25.5011 30.5346 26.7555 31.2074Z" fill="#6654A4"/>
<path d="M7.67881 0.772461C6.93103 1.684 6.24356 2.77865 5.62041 4.05641C5.09777 5.13911 4.63543 6.31337 4.24546 7.56724C2.70568 7.12142 1.29052 6.56415 0.0482438 5.89542C0.0361829 5.89144 0.012061 5.88347 0 5.87949C0.0964877 5.77202 0.188955 5.67251 0.293483 5.56503C0.361829 5.48542 0.438215 5.40183 0.518621 5.32222C2.56094 3.22049 5.0053 1.67604 7.67881 0.772461Z" fill="#6654A4"/>
<path d="M21.9227 17.447H14.4409V10.9587C16.7285 10.8951 18.9437 10.6284 21.0182 10.1865C21.5448 12.4355 21.8544 14.8955 21.9227 17.447Z" fill="#BAB7B7"/>
<path d="M20.4392 8.08448C18.5577 8.47059 16.5355 8.70942 14.4409 8.77311V0C15.1163 0.195046 15.7877 0.573198 16.435 1.13843C17.4722 2.04202 18.417 3.35161 19.2331 5.03936C19.6915 5.97877 20.0895 6.99779 20.4392 8.08448Z" fill="#BAB7B7"/>
</svg>
